<?xml version="1.0" standalone="no"?>
<!DOCTYPE svg PUBLIC "-//W3C//DTD SVG 20010904//EN"
 "http://www.w3.org/TR/2001/REC-SVG-20010904/DTD/svg10.dtd">
<svg version="1.0" xmlns="http://www.w3.org/2000/svg"
 width="620.000000pt" height="132.000000pt" viewBox="0 0 620.000000 132.000000"
 preserveAspectRatio="xMidYMid meet">

<g transform="translate(0.000000,132.000000) scale(0.100000,-0.100000)"
fill="#000000" stroke="none">
<path d="M726 980 c-79 -14 -165 -62 -231 -132 -58 -60 -58 -61 -8 -15 28 26
72 57 97 69 25 12 43 25 40 30 -3 4 2 5 10 2 18 -7 21 -20 6 -29 -5 -3 -19
-20 -32 -38 -19 -28 -17 -27 20 9 45 45 105 79 110 64 2 -6 13 -3 25 5 18 13
24 13 43 0 15 -10 24 -11 26 -3 5 14 56 -12 105 -55 l37 -32 -27 36 c-25 33
-26 37 -10 43 10 4 14 4 11 0 -4 -3 15 -18 43 -32 28 -15 74 -49 102 -77 42
-42 46 -44 23 -13 -56 75 -171 150 -252 163 -75 12 -89 13 -138 5z"/>
<path d="M1655 896 c-22 -9 -55 -31 -72 -50 -27 -29 -33 -44 -33 -81 0 -72 40
-107 165 -148 96 -31 100 -33 103 -63 3 -27 -1 -33 -28 -44 -39 -16 -114 -1
-179 35 -23 14 -45 25 -47 25 -2 0 -13 -19 -25 -42 -21 -40 -21 -42 -3 -56 72
-55 227 -79 307 -48 62 23 98 65 104 119 10 85 -29 123 -173 166 -78 23 -97
38 -92 73 3 20 10 23 52 26 33 2 70 -4 109 -18 32 -12 60 -20 62 -18 1 1 12
22 23 44 l21 42 -51 22 c-67 29 -187 36 -243 16z"/>
<path d="M1330 845 l0 -55 53 0 52 -1 -35 -15 c-65 -28 -70 -41 -70 -212 l0
-153 58 3 57 3 2 243 2 242 -60 0 -59 0 0 -55z"/>
<path d="M2085 664 c-61 -130 -111 -241 -113 -245 -2 -5 24 -9 57 -9 l60 0 22
50 c21 49 22 50 66 50 36 0 50 6 74 29 45 46 39 61 -25 61 l-54 0 35 83 c19
45 38 85 42 89 4 4 42 -75 85 -177 l79 -185 59 0 c37 0 58 4 58 12 0 6 -48
116 -106 245 l-107 233 -61 0 -62 0 -109 -236z"/>
<path d="M2592 658 l3 -243 58 -3 57 -3 0 201 0 200 70 0 c82 0 127 -18 136
-55 15 -61 -22 -103 -94 -108 -23 -1 -42 -4 -42 -6 0 -3 30 -55 66 -118 l66
-113 64 0 c35 0 64 3 64 6 0 3 -23 39 -52 80 l-51 75 36 30 c43 35 61 85 55
149 -6 58 -35 101 -85 126 -31 15 -67 19 -196 22 l-157 4 2 -244z"/>
<path d="M3347 878 c-15 -5 -25 -14 -22 -19 4 -5 0 -6 -8 -4 -17 7 -69 -33
-61 -47 4 -6 2 -8 -3 -5 -14 9 -37 -19 -27 -34 4 -7 3 -9 -3 -6 -34 21 -45
-162 -14 -228 22 -48 55 -80 72 -69 7 4 10 3 5 -4 -19 -32 170 -60 267 -39
l37 8 0 109 0 110 -85 0 c-78 0 -85 -2 -85 -20 0 -18 7 -20 60 -20 l60 0 0
-74 0 -74 -40 -7 c-97 -16 -199 22 -237 90 -25 44 -31 132 -12 182 13 35 55
80 94 101 31 16 217 34 208 20 -2 -5 1 -8 6 -8 17 0 13 37 -5 44 -25 10 -176
5 -207 -6z"/>
<path d="M3730 655 l0 -235 158 2 157 2 -155 6 -155 6 153 2 c188 2 206 20 25
24 l-128 3 -3 213 -2 212 -25 0 -25 0 0 -235z"/>
<path d="M4211 868 c-110 -53 -151 -214 -88 -339 12 -24 27 -44 34 -44 6 0 15
-4 20 -9 5 -5 2 -6 -6 -1 -10 5 -12 4 -7 -4 4 -6 26 -21 49 -33 49 -25 187
-32 195 -10 2 7 8 9 13 6 17 -10 84 44 109 88 28 49 38 153 21 216 -15 53 -64
110 -116 133 -57 26 -166 25 -224 -3z m197 -32 c64 -33 102 -104 102 -188 0
-133 -110 -222 -231 -187 -24 7 -51 13 -59 14 -8 0 -15 5 -15 12 0 14 -13 28
-28 28 -5 0 -11 9 -12 20 -2 11 -8 42 -14 68 -24 101 25 208 109 240 30 11
122 7 148 -7z m93 -23 c13 -16 12 -17 -3 -4 -10 7 -18 15 -18 17 0 8 8 3 21
-13z"/>
<path d="M4690 655 l0 -237 118 4 c127 5 164 16 201 64 31 39 29 107 -4 139
-13 14 -36 25 -50 25 -30 0 -33 16 -5 25 32 10 60 54 60 94 0 80 -52 109 -209
118 l-111 6 0 -238z m245 160 c33 -33 32 -70 -4 -106 -28 -27 -34 -29 -110
-29 l-81 0 0 80 0 80 85 0 c78 0 88 -2 110 -25z m55 -99 c0 -2 -8 -10 -17 -17
-16 -13 -17 -12 -4 4 13 16 21 21 21 13z m-35 -106 c16 -15 25 -34 25 -55 0
-62 -61 -95 -177 -95 l-63 0 0 91 0 91 95 -4 c82 -3 98 -7 120 -28z m55 -114
c0 -2 -8 -10 -17 -17 -16 -13 -17 -12 -4 4 13 16 21 21 21 13z m-187 -63 c-24
-2 -62 -2 -85 0 -24 2 -5 4 42 4 47 0 66 -2 43 -4z"/>
<path d="M5220 674 c-52 -120 -95 -222 -95 -228 0 -6 -4 -14 -10 -18 -5 -4 4
-8 21 -8 28 0 32 5 58 67 31 77 38 83 84 83 34 0 72 15 72 28 0 4 -22 6 -50 5
-27 -2 -50 0 -50 4 0 17 85 213 92 213 4 0 8 -5 8 -11 0 -21 143 -349 150
-344 3 2 6 -6 6 -18 -1 -18 5 -23 31 -25 l32 -3 -22 49 c-12 28 -26 47 -31 44
-5 -3 -6 0 -3 5 4 6 -28 91 -72 189 -108 247 -98 248 -221 -32z"/>
<path d="M5660 655 l0 -235 153 0 c146 0 153 1 153 20 0 19 -7 20 -128 20
l-128 0 0 215 0 215 -25 0 -25 0 0 -235z"/>
<path d="M546 681 c-16 -3 -37 -17 -48 -32 -29 -39 -12 -72 49 -95 65 -24 76
-33 62 -50 -15 -19 -38 -18 -81 4 -34 18 -36 18 -47 0 -16 -25 -15 -27 24 -44
69 -28 148 -13 166 33 14 38 -14 73 -74 92 -34 10 -47 20 -47 33 0 21 32 24
76 8 28 -11 43 -1 44 26 0 9 -80 38 -92 33 -2 -1 -16 -4 -32 -8z"/>
<path d="M380 655 c0 -19 5 -25 22 -25 l22 0 -22 -16 c-19 -13 -22 -24 -22
-90 l0 -74 30 0 30 0 0 115 0 115 -30 0 c-25 0 -30 -4 -30 -25z"/>
<path d="M740 574 c-27 -59 -50 -111 -50 -115 0 -5 11 -9 25 -9 17 0 29 8 37
25 7 15 19 25 33 25 21 0 45 17 45 32 0 4 -11 8 -24 8 l-24 0 15 40 c9 23 20
37 24 33 4 -4 22 -43 39 -85 30 -72 35 -78 61 -78 16 0 29 3 29 8 -1 4 -23 54
-49 112 -45 98 -51 105 -80 108 -30 3 -32 1 -81 -104z"/>
<path d="M980 565 l0 -115 25 0 c23 0 25 4 26 48 1 26 2 67 3 92 l1 45 39 0
c26 0 42 -6 50 -17 14 -23 -3 -52 -33 -56 -11 -2 -21 -5 -21 -6 0 -2 12 -25
26 -51 28 -50 40 -59 73 -53 21 3 21 4 -4 41 -14 20 -21 37 -15 37 6 0 18 15
27 34 13 29 14 40 4 64 -16 39 -48 52 -131 52 l-70 0 0 -115z"/>
<path d="M1339 345 c-3 -26 0 -97 5 -102 3 -3 6 19 6 50 0 31 -2 57 -5 57 -3
0 -5 -2 -6 -5z"/>
<path d="M1392 295 c1 -52 2 -54 5 -16 l4 45 24 -30 c13 -16 24 -24 25 -19 0
6 -13 26 -30 45 l-29 35 1 -60z"/>
<path d="M1510 339 c0 -6 7 -9 15 -5 12 4 15 -4 15 -44 0 -28 5 -50 10 -50 6
0 10 22 10 50 0 40 3 48 15 44 8 -4 15 -1 15 5 0 6 -17 11 -40 11 -23 0 -40
-5 -40 -11z"/>
<path d="M1627 343 c-4 -3 -7 -28 -7 -55 l0 -48 38 1 c30 2 32 3 10 6 -35 5
-39 40 -5 46 l22 4 -22 2 c-16 1 -23 7 -23 22 0 16 5 20 20 16 11 -3 20 -1 20
4 0 10 -43 12 -53 2z"/>
<path d="M1731 293 c1 -32 4 -48 6 -35 5 27 19 28 35 2 7 -11 16 -20 21 -20 4
0 0 11 -8 24 -14 21 -14 24 0 29 34 14 4 57 -39 57 -13 0 -16 -11 -15 -57z
m49 22 c0 -8 -9 -15 -20 -15 -11 0 -20 7 -20 15 0 8 9 15 20 15 11 0 20 -7 20
-15z"/>
<path d="M1842 295 c1 -58 1 -58 7 -16 l6 45 29 -43 c21 -33 30 -40 37 -30 12
19 11 86 -1 94 -6 4 -10 -11 -11 -37 l0 -43 -17 24 c-9 14 -25 34 -34 45 -17
20 -17 19 -16 -39z"/>
<path d="M1981 301 c-12 -29 -20 -55 -17 -58 3 -3 8 2 12 11 8 21 50 21 58 0
4 -9 9 -15 12 -12 2 3 -6 29 -19 59 l-23 53 -23 -53z m39 -13 c0 -5 -7 -8 -15
-8 -15 0 -20 21 -8 33 7 7 23 -11 23 -25z"/>
<path d="M2070 340 c0 -5 7 -10 14 -10 11 0 16 -14 19 -47 l3 -48 2 48 c2 40
5 47 22 47 11 0 20 5 20 10 0 6 -18 10 -40 10 -22 0 -40 -4 -40 -10z"/>
<path d="M2183 295 c0 -33 2 -45 4 -27 2 18 2 45 0 60 -2 15 -4 0 -4 -33z"/>
<path d="M2247 332 c-34 -37 -11 -92 38 -92 41 0 60 63 29 94 -21 21 -47 20
-67 -2z m57 -8 c19 -18 20 -28 6 -55 -23 -41 -78 -4 -62 41 11 31 34 37 56 14z"/>
<path d="M2372 295 c1 -58 1 -58 7 -16 l6 45 29 -43 c21 -33 30 -40 37 -30 12
19 11 86 -1 94 -6 4 -10 -11 -11 -37 l0 -43 -17 24 c-9 14 -25 34 -34 45 -17
20 -17 19 -16 -39z"/>
<path d="M2511 300 c-12 -29 -20 -54 -17 -57 3 -3 8 2 12 11 8 21 43 21 61 -1
13 -16 13 -16 7 7 -3 14 -14 40 -24 59 l-17 33 -22 -52z m39 -6 c0 -8 -7 -14
-15 -14 -17 0 -18 2 -9 24 7 18 24 12 24 -10z"/>
<path d="M2622 298 l-2 -58 33 1 c29 2 30 2 5 6 -25 4 -27 9 -31 56 l-3 52 -2
-57z"/>
<path d="M2773 343 c-23 -9 -14 -43 13 -53 30 -12 27 -32 -7 -42 -22 -6 -21
-7 6 -5 42 3 48 42 10 57 -31 12 -28 36 4 33 13 -2 20 1 16 7 -7 11 -22 12
-42 3z"/>
<path d="M2875 334 c-20 -20 -16 -73 6 -87 9 -5 28 -7 42 -3 34 8 45 47 23 81
-19 29 -47 32 -71 9z m53 -6 c18 -18 15 -68 -4 -75 -39 -15 -69 40 -39 71 20
19 27 20 43 4z"/>
<path d="M3010 330 c-38 -38 -15 -91 38 -89 l27 1 -29 7 c-37 8 -50 41 -29 71
10 14 22 20 34 17 11 -3 17 -1 13 4 -9 15 -33 10 -54 -11z"/>
<path d="M3113 295 c0 -33 2 -45 4 -27 2 18 2 45 0 60 -2 15 -4 0 -4 -33z"/>
<path d="M3167 343 c-4 -3 -7 -28 -7 -55 l0 -48 38 1 c36 1 36 2 7 8 -40 8
-46 38 -8 44 l28 4 -28 2 c-21 1 -28 5 -25 19 2 11 11 16 26 14 12 -2 22 2 22
7 0 12 -43 15 -53 4z"/>
<path d="M3260 340 c0 -5 6 -9 13 -7 8 1 14 -15 16 -48 l5 -50 5 50 c5 40 9
49 24 47 9 -2 17 2 17 8 0 5 -18 10 -40 10 -22 0 -40 -4 -40 -10z"/>
<path d="M3681 327 c-6 -16 -11 -35 -11 -43 0 -26 -17 -6 -24 27 -3 18 -9 30
-12 26 -7 -6 14 -77 26 -91 5 -5 14 11 21 35 l13 44 9 -42 c5 -24 14 -43 18
-43 5 0 15 23 24 52 18 60 18 61 6 54 -5 -3 -12 -22 -16 -42 -7 -41 -15 -38
-31 14 l-11 37 -12 -28z"/>
<path d="M3808 319 c-9 -20 -19 -47 -22 -60 -6 -20 -5 -21 4 -6 14 22 56 22
64 1 4 -9 9 -15 12 -12 2 3 -6 30 -19 59 l-24 54 -15 -36z m32 -31 c0 -5 -7
-8 -15 -8 -15 0 -20 21 -8 33 7 7 23 -11 23 -25z"/>
<path d="M3907 343 c-11 -10 -8 -103 3 -103 6 0 10 12 10 28 l1 27 24 -30 c14
-16 25 -25 25 -20 0 6 -5 16 -11 22 -9 9 -8 16 5 28 20 20 20 20 0 39 -16 16
-46 21 -57 9z m37 -9 c23 -9 20 -34 -4 -34 -13 0 -20 7 -20 20 0 22 1 23 24
14z"/>
<path d="M4017 343 c-2 -5 -3 -28 -2 -53 1 -44 2 -45 36 -46 26 -1 28 -1 7 3
-35 6 -39 40 -5 46 l22 4 -22 2 c-15 1 -23 7 -23 20 0 14 5 18 19 14 10 -3 22
0 25 6 5 7 -4 11 -23 11 -16 0 -32 -3 -34 -7z"/>
<path d="M4122 295 c1 -58 1 -58 7 -16 l6 45 28 -42 c15 -24 32 -40 37 -37 13
8 13 92 0 100 -6 4 -10 -11 -11 -37 l0 -43 -17 24 c-9 14 -25 34 -34 45 -17
20 -17 19 -16 -39z"/>
<path d="M4250 295 l0 -55 33 1 c30 2 30 2 5 6 -38 6 -38 40 0 46 l27 4 -28 2
c-21 1 -28 5 -25 19 3 11 12 16 26 15 12 -2 22 2 22 7 0 6 -13 10 -30 10 -30
0 -30 -1 -30 -55z"/>
<path d="M4363 343 c-23 -9 -14 -41 14 -55 35 -17 34 -31 -3 -39 -28 -7 -28
-7 -3 -8 35 -1 56 23 39 44 -7 8 -18 15 -26 15 -7 0 -16 5 -20 11 -8 13 16 31
34 24 6 -2 12 0 12 5 0 10 -26 12 -47 3z"/>
<path d="M4460 335 c-15 -18 -6 -33 27 -46 31 -12 25 -32 -13 -41 -27 -6 -27
-6 6 -5 30 2 35 5 35 27 0 19 -6 26 -23 28 -32 5 -25 38 6 35 14 -2 21 1 17 7
-9 15 -41 12 -55 -5z"/>
<path d="M4611 293 c1 -32 4 -48 6 -35 2 12 7 22 11 22 3 0 17 -10 30 -22 l25
-23 -12 22 c-9 17 -9 27 1 43 11 18 10 23 -6 36 -11 8 -28 14 -38 14 -15 0
-18 -8 -17 -57z m54 16 c-9 -14 -45 -11 -45 4 0 8 3 17 6 20 10 9 46 -12 39
-24z"/>
<path d="M4720 295 l0 -55 38 2 c36 1 36 1 5 5 -43 6 -47 40 -5 46 l27 4 -28
2 c-21 1 -28 5 -25 19 2 10 12 17 26 16 12 0 22 3 22 8 0 4 -13 8 -30 8 -30 0
-30 -1 -30 -55z"/>
<path d="M4832 338 c-20 -20 -13 -39 18 -50 37 -12 34 -30 -6 -40 -27 -6 -27
-6 6 -5 27 2 36 7 38 23 2 17 -5 24 -29 33 -27 9 -30 13 -19 26 8 10 21 13 33
9 13 -4 17 -2 13 5 -9 15 -39 14 -54 -1z"/>
<path d="M4931 293 c1 -32 4 -49 6 -38 2 12 17 26 33 32 34 13 39 37 11 53
-42 22 -51 14 -50 -47z m48 33 c10 -12 8 -17 -8 -25 -22 -12 -37 0 -27 24 7
19 20 19 35 1z"/>
<path d="M5050 330 c-11 -11 -20 -29 -20 -39 0 -41 59 -68 88 -39 17 17 15 64
-4 82 -21 21 -40 20 -64 -4z m55 -6 c30 -31 0 -86 -39 -71 -28 11 -15 87 15
87 4 0 15 -7 24 -16z"/>
<path d="M5172 295 c1 -52 2 -54 5 -16 l4 45 24 -30 c13 -16 24 -24 25 -19 0
6 -13 26 -30 45 l-29 35 1 -60z"/>
<path d="M5306 334 c-19 -19 -13 -32 21 -45 29 -11 26 -31 -8 -41 -22 -6 -21
-7 6 -5 42 3 48 42 10 57 -31 12 -28 36 4 33 13 -2 20 1 16 7 -9 15 -31 12
-49 -6z"/>
<path d="M5460 295 c0 -51 2 -55 24 -55 34 0 47 21 39 61 -7 37 -18 49 -45 49
-15 0 -18 -9 -18 -55z m50 19 c0 -8 -9 -14 -20 -14 -19 0 -27 19 -14 33 10 9
34 -4 34 -19z m5 -44 c0 -8 -10 -16 -22 -18 -18 -3 -23 2 -23 18 0 16 5 21 23
18 12 -2 22 -10 22 -18z"/>
<path d="M5573 295 c0 -33 2 -45 4 -27 2 18 2 45 0 60 -2 15 -4 0 -4 -33z"/>
<path d="M5770 340 c0 -5 7 -10 15 -10 11 0 15 -13 17 -47 l1 -48 6 50 c5 40
9 49 24 47 9 -2 17 2 17 8 0 5 -18 10 -40 10 -22 0 -40 -4 -40 -10z"/>
<path d="M480 336 c0 -3 17 -10 38 -16 30 -9 45 -24 79 -76 24 -35 40 -64 38
-64 -19 0 -128 65 -170 101 -49 41 -48 41 10 -20 105 -109 240 -156 376 -133
108 19 217 83 281 165 l32 42 -50 -46 c-51 -47 -121 -92 -164 -104 l-25 -7 21
23 c23 27 84 115 84 122 0 3 -17 0 -37 -6 -22 -7 -108 -12 -203 -12 -149 0
-196 5 -292 32 -10 2 -18 2 -18 -1z m350 -43 c80 2 153 8 164 12 16 7 17 6 7
-14 -19 -34 -78 -89 -121 -111 -22 -11 -41 -20 -44 -20 -3 0 2 16 10 35 20 49
17 57 -7 13 -27 -52 -53 -64 -80 -37 -11 11 -25 34 -31 50 -6 17 -12 28 -15
26 -2 -3 3 -22 12 -42 8 -21 13 -40 11 -42 -16 -17 -166 106 -166 135 0 5 25
5 58 0 31 -6 122 -8 202 -5z"/>
<path d="M1459 305 c-1 -19 -2 -40 -3 -47 -1 -6 5 -13 12 -15 8 -3 12 10 12
46 0 57 -19 71 -21 16z"/>
<path d="M3371 335 c0 -5 6 -19 14 -29 8 -11 16 -31 16 -45 l2 -26 4 24 c3 14
12 35 20 48 9 13 13 26 10 29 -3 3 -11 -4 -17 -17 l-12 -22 -19 24 c-10 13
-19 20 -18 14z"/>
<path d="M3536 300 c-18 -45 -21 -75 -5 -47 12 21 59 23 59 2 0 -8 4 -15 10
-15 12 0 -23 93 -37 97 -6 2 -18 -14 -27 -37z m37 6 c6 -15 -1 -26 -15 -26 -4
0 -8 9 -8 20 0 23 15 27 23 6z"/>
<path d="M5239 305 c-1 -19 -2 -40 -3 -47 -1 -6 5 -13 12 -15 8 -3 12 10 12
46 0 57 -19 71 -21 16z"/>
<path d="M5400 289 c0 -32 4 -48 10 -44 12 8 10 95 -2 95 -4 0 -8 -23 -8 -51z"/>
<path d="M5620 290 l0 -50 38 1 c30 2 32 3 10 6 -26 4 -28 8 -28 49 0 24 -4
44 -10 44 -5 0 -10 -22 -10 -50z"/>
<path d="M5720 290 c0 -29 3 -50 7 -46 7 7 5 87 -3 95 -2 2 -4 -20 -4 -49z"/>
<path d="M5881 335 c0 -5 6 -19 14 -29 8 -11 16 -31 16 -45 l2 -26 4 24 c3 14
12 35 20 48 9 13 13 26 10 29 -3 3 -11 -4 -17 -17 l-12 -22 -19 24 c-10 13
-19 20 -18 14z"/>
<path d="M1048 323 c7 -3 16 -2 19 1 4 3 -2 6 -13 5 -11 0 -14 -3 -6 -6z"/>
</g>
</svg>
